STARTFONT 2.1
COMMENT
COMMENT Converted from OpenType font "8-BITWONDER.TTF" by "otf2bdf 3.0".
COMMENT
FONT -FreeType-8BIT WONDER-Medium-R-Normal--6-50-80-80-P-53-ISO10646-1
SIZE 5 80 80
FONTBOUNDINGBOX 7 6 0 0
STARTPROPERTIES 19
FOUNDRY "FreeType"
FAMILY_NAME "8BIT WONDER"
WEIGHT_NAME "Medium"
SLANT "R"
SETWIDTH_NAME "Normal"
ADD_STYLE_NAME ""
PIXEL_SIZE 6
POINT_SIZE 50
RESOLUTION_X 80
RESOLUTION_Y 80
SPACING "P"
AVERAGE_WIDTH 53
CHARSET_REGISTRY "ISO10646"
CHARSET_ENCODING "1"
FONT_ASCENT 6
FONT_DESCENT 0
COPYRIGHT "©2001 Joiro Hatgaya | Freeware, but look at readme file. | JOIRO@HOTMAIL.COM"
_OTF_FONTFILE "8-BITWONDER.TTF"
_OTF_PSNAME "8BITWONDERNominal"
ENDPROPERTIES
CHARS 69
STARTCHAR 0020
ENCODING 32
SWIDTH 540 0
DWIDTH 3 0
BBX 0 0 0 0
BITMAP
ENDCHAR
STARTCHAR 0023
ENCODING 35
SWIDTH 1080 0
DWIDTH 6 0
BBX 6 6 0 0
BITMAP
FC
84
84
84
84
FC
ENDCHAR
STARTCHAR 0028
ENCODING 40
SWIDTH 540 0
DWIDTH 3 0
BBX 3 5 0 0
BITMAP
E0
C0
C0
C0
E0
ENDCHAR
STARTCHAR 0029
ENCODING 41
SWIDTH 540 0
DWIDTH 3 0
BBX 3 5 0 0
BITMAP
C0
60
60
60
E0
ENDCHAR
STARTCHAR 002A
ENCODING 42
SWIDTH 1080 0
DWIDTH 6 0
BBX 5 5 0 0
BITMAP
88
50
20
50
88
ENDCHAR
STARTCHAR 0030
ENCODING 48
SWIDTH 1080 0
DWIDTH 6 0
BBX 5 5 0 0
BITMAP
F0
D8
F8
D8
F8
ENDCHAR
STARTCHAR 0031
ENCODING 49
SWIDTH 540 0
DWIDTH 3 0
BBX 2 5 0 0
BITMAP
80
C0
C0
C0
C0
ENDCHAR
STARTCHAR 0032
ENCODING 50
SWIDTH 1080 0
DWIDTH 6 0
BBX 5 5 0 0
BITMAP
F0
18
F8
C0
F8
ENDCHAR
STARTCHAR 0033
ENCODING 51
SWIDTH 1080 0
DWIDTH 6 0
BBX 5 5 0 0
BITMAP
F0
18
70
18
F0
ENDCHAR
STARTCHAR 0034
ENCODING 52
SWIDTH 1080 0
DWIDTH 6 0
BBX 5 5 0 0
BITMAP
D8
D8
F8
18
18
ENDCHAR
STARTCHAR 0035
ENCODING 53
SWIDTH 1080 0
DWIDTH 6 0
BBX 5 5 0 0
BITMAP
F8
C0
F0
18
F8
ENDCHAR
STARTCHAR 0036
ENCODING 54
SWIDTH 1080 0
DWIDTH 6 0
BBX 5 5 0 0
BITMAP
F8
C0
F0
D8
F8
ENDCHAR
STARTCHAR 0037
ENCODING 55
SWIDTH 1080 0
DWIDTH 6 0
BBX 5 5 0 0
BITMAP
F0
18
18
18
18
ENDCHAR
STARTCHAR 0038
ENCODING 56
SWIDTH 1080 0
DWIDTH 6 0
BBX 5 5 0 0
BITMAP
F0
D8
F0
D8
F0
ENDCHAR
STARTCHAR 0039
ENCODING 57
SWIDTH 1080 0
DWIDTH 6 0
BBX 5 5 0 0
BITMAP
F0
D8
F8
18
F8
ENDCHAR
STARTCHAR 0041
ENCODING 65
SWIDTH 1080 0
DWIDTH 6 0
BBX 5 5 0 0
BITMAP
F0
D8
F8
D8
D8
ENDCHAR
STARTCHAR 0042
ENCODING 66
SWIDTH 1080 0
DWIDTH 6 0
BBX 5 5 0 0
BITMAP
F0
D8
F0
D8
F0
ENDCHAR
STARTCHAR 0043
ENCODING 67
SWIDTH 1080 0
DWIDTH 6 0
BBX 5 5 0 0
BITMAP
F8
C0
C0
C0
F8
ENDCHAR
STARTCHAR 0044
ENCODING 68
SWIDTH 1080 0
DWIDTH 6 0
BBX 5 5 0 0
BITMAP
F0
D8
D8
D8
F8
ENDCHAR
STARTCHAR 0045
ENCODING 69
SWIDTH 1080 0
DWIDTH 6 0
BBX 5 5 0 0
BITMAP
F8
C0
E0
C0
F8
ENDCHAR
STARTCHAR 0046
ENCODING 70
SWIDTH 1080 0
DWIDTH 6 0
BBX 5 5 0 0
BITMAP
F8
C0
E0
C0
C0
ENDCHAR
STARTCHAR 0047
ENCODING 71
SWIDTH 1080 0
DWIDTH 6 0
BBX 5 5 0 0
BITMAP
F8
C0
F8
D8
F8
ENDCHAR
STARTCHAR 0048
ENCODING 72
SWIDTH 1080 0
DWIDTH 6 0
BBX 5 5 0 0
BITMAP
D8
D8
F8
D8
D8
ENDCHAR
STARTCHAR 0049
ENCODING 73
SWIDTH 540 0
DWIDTH 3 0
BBX 2 5 0 0
BITMAP
C0
C0
C0
C0
C0
ENDCHAR
STARTCHAR 004A
ENCODING 74
SWIDTH 1080 0
DWIDTH 6 0
BBX 5 5 0 0
BITMAP
18
18
18
18
F8
ENDCHAR
STARTCHAR 004B
ENCODING 75
SWIDTH 1080 0
DWIDTH 6 0
BBX 5 5 0 0
BITMAP
D8
D8
F0
D8
D8
ENDCHAR
STARTCHAR 004C
ENCODING 76
SWIDTH 1080 0
DWIDTH 6 0
BBX 5 5 0 0
BITMAP
C0
C0
C0
C0
F8
ENDCHAR
STARTCHAR 004D
ENCODING 77
SWIDTH 1440 0
DWIDTH 8 0
BBX 7 5 0 0
BITMAP
FE
DA
DA
DA
DA
ENDCHAR
STARTCHAR 004E
ENCODING 78
SWIDTH 1080 0
DWIDTH 6 0
BBX 5 5 0 0
BITMAP
F0
D8
D8
D8
D8
ENDCHAR
STARTCHAR 004F
ENCODING 79
SWIDTH 1080 0
DWIDTH 6 0
BBX 5 5 0 0
BITMAP
F0
D8
D8
D8
F8
ENDCHAR
STARTCHAR 0050
ENCODING 80
SWIDTH 1080 0
DWIDTH 6 0
BBX 5 5 0 0
BITMAP
F0
D8
F8
C0
C0
ENDCHAR
STARTCHAR 0051
ENCODING 81
SWIDTH 1080 0
DWIDTH 6 0
BBX 5 5 0 0
BITMAP
F0
D8
D8
D8
F8
ENDCHAR
STARTCHAR 0052
ENCODING 82
SWIDTH 1080 0
DWIDTH 6 0
BBX 5 5 0 0
BITMAP
F0
D8
F0
D8
D8
ENDCHAR
STARTCHAR 0053
ENCODING 83
SWIDTH 1080 0
DWIDTH 6 0
BBX 5 5 0 0
BITMAP
F8
C0
F0
18
F8
ENDCHAR
STARTCHAR 0054
ENCODING 84
SWIDTH 1080 0
DWIDTH 6 0
BBX 5 5 0 0
BITMAP
F8
60
60
60
60
ENDCHAR
STARTCHAR 0055
ENCODING 85
SWIDTH 1080 0
DWIDTH 6 0
BBX 5 5 0 0
BITMAP
D8
D8
D8
D8
F8
ENDCHAR
STARTCHAR 0056
ENCODING 86
SWIDTH 1080 0
DWIDTH 6 0
BBX 5 5 0 0
BITMAP
D8
D8
D8
D8
F8
ENDCHAR
STARTCHAR 0057
ENCODING 87
SWIDTH 1440 0
DWIDTH 8 0
BBX 7 5 0 0
BITMAP
DA
DA
DA
DA
FE
ENDCHAR
STARTCHAR 0058
ENCODING 88
SWIDTH 1080 0
DWIDTH 6 0
BBX 5 5 0 0
BITMAP
D8
D8
F0
D8
D8
ENDCHAR
STARTCHAR 0059
ENCODING 89
SWIDTH 1080 0
DWIDTH 6 0
BBX 5 5 0 0
BITMAP
D8
D8
F8
60
60
ENDCHAR
STARTCHAR 005A
ENCODING 90
SWIDTH 1080 0
DWIDTH 6 0
BBX 5 5 0 0
BITMAP
F8
18
F8
C0
F8
ENDCHAR
STARTCHAR 005B
ENCODING 91
SWIDTH 540 0
DWIDTH 3 0
BBX 3 5 0 0
BITMAP
E0
C0
C0
C0
E0
ENDCHAR
STARTCHAR 005D
ENCODING 93
SWIDTH 540 0
DWIDTH 3 0
BBX 3 5 0 0
BITMAP
E0
60
60
60
E0
ENDCHAR
STARTCHAR 0061
ENCODING 97
SWIDTH 1080 0
DWIDTH 6 0
BBX 5 5 0 0
BITMAP
F8
D8
F8
D8
D8
ENDCHAR
STARTCHAR 0062
ENCODING 98
SWIDTH 1080 0
DWIDTH 6 0
BBX 5 5 0 0
BITMAP
F8
D8
F0
D8
F0
ENDCHAR
STARTCHAR 0063
ENCODING 99
SWIDTH 1080 0
DWIDTH 6 0
BBX 5 5 0 0
BITMAP
F8
C0
C0
C0
F8
ENDCHAR
STARTCHAR 0064
ENCODING 100
SWIDTH 1080 0
DWIDTH 6 0
BBX 5 5 0 0
BITMAP
F8
D8
D8
D8
F0
ENDCHAR
STARTCHAR 0065
ENCODING 101
SWIDTH 1080 0
DWIDTH 6 0
BBX 5 5 0 0
BITMAP
F8
C0
E0
C0
F8
ENDCHAR
STARTCHAR 0066
ENCODING 102
SWIDTH 1080 0
DWIDTH 6 0
BBX 5 5 0 0
BITMAP
F8
C0
E0
C0
C0
ENDCHAR
STARTCHAR 0067
ENCODING 103
SWIDTH 1080 0
DWIDTH 6 0
BBX 5 5 0 0
BITMAP
F8
C0
F8
D8
F8
ENDCHAR
STARTCHAR 0068
ENCODING 104
SWIDTH 1080 0
DWIDTH 6 0
BBX 5 5 0 0
BITMAP
D8
D8
F8
D8
D8
ENDCHAR
STARTCHAR 0069
ENCODING 105
SWIDTH 540 0
DWIDTH 3 0
BBX 2 5 0 0
BITMAP
C0
C0
C0
C0
C0
ENDCHAR
STARTCHAR 006A
ENCODING 106
SWIDTH 1080 0
DWIDTH 6 0
BBX 5 5 0 0
BITMAP
18
18
18
18
F0
ENDCHAR
STARTCHAR 006B
ENCODING 107
SWIDTH 1080 0
DWIDTH 6 0
BBX 5 5 0 0
BITMAP
D8
D8
F0
D8
D8
ENDCHAR
STARTCHAR 006C
ENCODING 108
SWIDTH 1080 0
DWIDTH 6 0
BBX 5 5 0 0
BITMAP
C0
C0
C0
C0
F8
ENDCHAR
STARTCHAR 006D
ENCODING 109
SWIDTH 1440 0
DWIDTH 8 0
BBX 7 5 0 0
BITMAP
FE
DA
DA
DA
DA
ENDCHAR
STARTCHAR 006E
ENCODING 110
SWIDTH 1080 0
DWIDTH 6 0
BBX 5 5 0 0
BITMAP
F8
D8
D8
D8
D8
ENDCHAR
STARTCHAR 006F
ENCODING 111
SWIDTH 1080 0
DWIDTH 6 0
BBX 5 5 0 0
BITMAP
F8
D8
D8
D8
F0
ENDCHAR
STARTCHAR 0070
ENCODING 112
SWIDTH 1080 0
DWIDTH 6 0
BBX 5 5 0 0
BITMAP
F8
D8
F0
C0
C0
ENDCHAR
STARTCHAR 0071
ENCODING 113
SWIDTH 1080 0
DWIDTH 6 0
BBX 5 5 0 0
BITMAP
F8
D8
D8
D8
F0
ENDCHAR
STARTCHAR 0072
ENCODING 114
SWIDTH 1080 0
DWIDTH 6 0
BBX 5 5 0 0
BITMAP
F8
D8
F0
D8
D8
ENDCHAR
STARTCHAR 0073
ENCODING 115
SWIDTH 1080 0
DWIDTH 6 0
BBX 5 5 0 0
BITMAP
F8
C0
F8
18
F0
ENDCHAR
STARTCHAR 0074
ENCODING 116
SWIDTH 1080 0
DWIDTH 6 0
BBX 5 5 0 0
BITMAP
F8
60
60
60
60
ENDCHAR
STARTCHAR 0075
ENCODING 117
SWIDTH 1080 0
DWIDTH 6 0
BBX 5 5 0 0
BITMAP
D8
D8
D8
D8
F0
ENDCHAR
STARTCHAR 0076
ENCODING 118
SWIDTH 1080 0
DWIDTH 6 0
BBX 5 5 0 0
BITMAP
D8
D8
D8
D8
F0
ENDCHAR
STARTCHAR 0077
ENCODING 119
SWIDTH 1440 0
DWIDTH 8 0
BBX 7 5 0 0
BITMAP
DA
DA
DA
DA
FE
ENDCHAR
STARTCHAR 0078
ENCODING 120
SWIDTH 1080 0
DWIDTH 6 0
BBX 5 5 0 0
BITMAP
D8
D8
F0
D8
D8
ENDCHAR
STARTCHAR 0079
ENCODING 121
SWIDTH 1080 0
DWIDTH 6 0
BBX 5 5 0 0
BITMAP
D8
D8
F0
60
60
ENDCHAR
STARTCHAR 007A
ENCODING 122
SWIDTH 1080 0
DWIDTH 6 0
BBX 5 5 0 0
BITMAP
F8
18
F0
C0
F8
ENDCHAR
ENDFONT
